<?xml version="1.0" encoding="UTF-8"?>
<svg xmlns="http://www.w3.org/2000/svg" version="1.1" width="200" height="200" viewBox="0 0 200 200"><rect x="0" y="0" width="200" height="200" fill="#ffffff"/><g transform="scale(8)"><g transform="translate(0,0)"><path fill-rule="evenodd" d="M9 0L9 1L10 1L10 2L8 2L8 3L9 3L9 4L10 4L10 5L9 5L9 6L8 6L8 8L4 8L4 10L5 10L5 11L4 11L4 12L2 12L2 13L1 13L1 14L0 14L0 15L1 15L1 16L0 16L0 17L1 17L1 16L2 16L2 15L3 15L3 16L4 16L4 17L7 17L7 16L8 16L8 21L9 21L9 22L8 22L8 25L10 25L10 24L11 24L11 25L12 25L12 24L14 24L14 25L17 25L17 24L18 24L18 25L21 25L21 24L20 24L20 23L21 23L21 22L22 22L22 23L23 23L23 25L25 25L25 24L24 24L24 23L25 23L25 22L24 22L24 23L23 23L23 22L22 22L22 21L21 21L21 20L22 20L22 18L23 18L23 19L25 19L25 18L23 18L23 17L25 17L25 16L24 16L24 15L25 15L25 12L23 12L23 14L22 14L22 15L23 15L23 17L22 17L22 18L21 18L21 15L20 15L20 13L19 13L19 12L20 12L20 11L21 11L21 10L22 10L22 11L25 11L25 9L24 9L24 10L23 10L23 8L22 8L22 9L21 9L21 10L20 10L20 11L19 11L19 10L18 10L18 11L19 11L19 12L17 12L17 9L19 9L19 8L17 8L17 4L16 4L16 3L17 3L17 2L16 2L16 0L14 0L14 1L13 1L13 0L12 0L12 1L10 1L10 0ZM14 1L14 2L13 2L13 3L12 3L12 2L11 2L11 3L12 3L12 4L11 4L11 5L10 5L10 6L9 6L9 7L10 7L10 6L11 6L11 8L12 8L12 10L10 10L10 8L9 8L9 10L8 10L8 9L5 9L5 10L7 10L7 11L5 11L5 12L7 12L7 13L6 13L6 14L4 14L4 16L7 16L7 15L6 15L6 14L7 14L7 13L8 13L8 14L9 14L9 13L10 13L10 15L9 15L9 16L10 16L10 17L9 17L9 18L11 18L11 19L12 19L12 20L9 20L9 21L12 21L12 20L13 20L13 21L14 21L14 22L13 22L13 23L14 23L14 22L15 22L15 23L16 23L16 24L17 24L17 23L18 23L18 24L19 24L19 21L18 21L18 22L17 22L17 23L16 23L16 19L15 19L15 17L14 17L14 16L12 16L12 15L11 15L11 13L12 13L12 12L13 12L13 11L16 11L16 8L14 8L14 9L15 9L15 10L13 10L13 8L12 8L12 6L13 6L13 7L14 7L14 6L15 6L15 7L16 7L16 6L15 6L15 4L14 4L14 3L16 3L16 2L15 2L15 1ZM13 5L13 6L14 6L14 5ZM0 8L0 10L1 10L1 11L0 11L0 12L1 12L1 11L3 11L3 10L1 10L1 9L3 9L3 8ZM9 10L9 11L10 11L10 10ZM11 11L11 12L12 12L12 11ZM14 12L14 13L13 13L13 15L14 15L14 14L15 14L15 16L16 16L16 15L18 15L18 14L19 14L19 13L17 13L17 14L16 14L16 12ZM21 12L21 13L22 13L22 12ZM1 14L1 15L2 15L2 14ZM19 15L19 16L20 16L20 15ZM11 16L11 18L12 18L12 16ZM17 17L17 20L20 20L20 17ZM13 18L13 19L14 19L14 18ZM18 18L18 19L19 19L19 18ZM23 20L23 21L25 21L25 20ZM10 22L10 23L11 23L11 24L12 24L12 23L11 23L11 22ZM0 0L0 7L7 7L7 0ZM1 1L1 6L6 6L6 1ZM2 2L2 5L5 5L5 2ZM18 0L18 7L25 7L25 0ZM19 1L19 6L24 6L24 1ZM20 2L20 5L23 5L23 2ZM0 18L0 25L7 25L7 18ZM1 19L1 24L6 24L6 19ZM2 20L2 23L5 23L5 20Z" fill="#000000"/></g></g></svg>
