<?xml version="1.0" encoding="UTF-8"?>
<svg xmlns="http://www.w3.org/2000/svg" version="1.1" width="200" height="200" viewBox="0 0 200 200"><rect x="0" y="0" width="200" height="200" fill="#ffffff"/><g transform="scale(6.061)"><g transform="translate(0,0)"><path fill-rule="evenodd" d="M9 0L9 1L8 1L8 2L9 2L9 3L8 3L8 4L10 4L10 7L11 7L11 4L12 4L12 5L13 5L13 4L15 4L15 6L14 6L14 8L13 8L13 6L12 6L12 9L13 9L13 10L11 10L11 11L10 11L10 9L11 9L11 8L6 8L6 9L5 9L5 8L0 8L0 9L3 9L3 10L0 10L0 11L3 11L3 10L6 10L6 11L7 11L7 12L6 12L6 13L10 13L10 17L11 17L11 18L12 18L12 16L11 16L11 13L12 13L12 14L13 14L13 13L14 13L14 15L16 15L16 14L15 14L15 12L17 12L17 13L18 13L18 16L17 16L17 17L19 17L19 18L18 18L18 19L19 19L19 18L21 18L21 19L20 19L20 21L19 21L19 20L16 20L16 18L15 18L15 19L14 19L14 20L13 20L13 19L12 19L12 20L13 20L13 21L11 21L11 22L12 22L12 23L10 23L10 24L9 24L9 20L11 20L11 19L10 19L10 18L9 18L9 16L8 16L8 15L9 15L9 14L8 14L8 15L7 15L7 14L5 14L5 13L4 13L4 12L5 12L5 11L4 11L4 12L3 12L3 13L2 13L2 12L1 12L1 13L2 13L2 15L1 15L1 16L0 16L0 17L1 17L1 18L2 18L2 17L4 17L4 18L6 18L6 19L5 19L5 20L6 20L6 21L5 21L5 22L6 22L6 23L7 23L7 24L6 24L6 25L8 25L8 27L9 27L9 28L8 28L8 33L9 33L9 32L10 32L10 33L11 33L11 32L10 32L10 31L11 31L11 30L13 30L13 29L15 29L15 28L17 28L17 29L19 29L19 26L21 26L21 25L20 25L20 24L22 24L22 25L23 25L23 24L22 24L22 23L23 23L23 22L24 22L24 26L22 26L22 27L20 27L20 30L23 30L23 32L24 32L24 33L25 33L25 32L24 32L24 31L27 31L27 30L25 30L25 29L30 29L30 30L29 30L29 31L28 31L28 32L26 32L26 33L28 33L28 32L29 32L29 33L30 33L30 32L31 32L31 33L32 33L32 32L31 32L31 31L32 31L32 30L31 30L31 29L30 29L30 28L31 28L31 27L32 27L32 26L33 26L33 23L30 23L30 24L32 24L32 25L30 25L30 26L31 26L31 27L30 27L30 28L29 28L29 23L28 23L28 21L30 21L30 20L31 20L31 19L32 19L32 20L33 20L33 19L32 19L32 18L31 18L31 17L32 17L32 16L31 16L31 15L32 15L32 14L33 14L33 13L32 13L32 14L31 14L31 13L30 13L30 14L29 14L29 15L30 15L30 16L31 16L31 17L30 17L30 18L31 18L31 19L30 19L30 20L29 20L29 18L28 18L28 17L29 17L29 16L28 16L28 13L29 13L29 12L32 12L32 10L33 10L33 9L32 9L32 8L31 8L31 9L30 9L30 8L29 8L29 10L26 10L26 8L25 8L25 4L24 4L24 3L25 3L25 0L23 0L23 1L24 1L24 3L23 3L23 5L21 5L21 6L20 6L20 7L19 7L19 5L20 5L20 4L21 4L21 3L22 3L22 2L21 2L21 3L20 3L20 2L19 2L19 1L20 1L20 0L18 0L18 1L17 1L17 0L16 0L16 1L15 1L15 0L14 0L14 3L13 3L13 4L12 4L12 2L13 2L13 1L11 1L11 2L10 2L10 0ZM21 0L21 1L22 1L22 0ZM16 2L16 3L17 3L17 5L16 5L16 6L15 6L15 8L16 8L16 9L14 9L14 10L16 10L16 11L17 11L17 12L18 12L18 11L19 11L19 12L20 12L20 13L21 13L21 12L20 12L20 11L22 11L22 12L23 12L23 11L24 11L24 10L23 10L23 9L25 9L25 8L23 8L23 7L24 7L24 5L23 5L23 7L22 7L22 6L21 6L21 7L20 7L20 8L19 8L19 9L20 9L20 10L18 10L18 9L17 9L17 8L18 8L18 6L17 6L17 5L19 5L19 3L18 3L18 2ZM10 3L10 4L11 4L11 3ZM8 5L8 7L9 7L9 5ZM16 6L16 7L17 7L17 6ZM21 7L21 8L22 8L22 7ZM27 8L27 9L28 9L28 8ZM6 9L6 10L7 10L7 11L8 11L8 12L9 12L9 9L8 9L8 10L7 10L7 9ZM21 9L21 10L22 10L22 9ZM29 10L29 11L28 11L28 12L27 12L27 11L25 11L25 12L24 12L24 13L25 13L25 14L26 14L26 13L28 13L28 12L29 12L29 11L30 11L30 10ZM12 11L12 12L15 12L15 11ZM10 12L10 13L11 13L11 12ZM3 13L3 14L4 14L4 15L2 15L2 16L1 16L1 17L2 17L2 16L4 16L4 17L5 17L5 16L4 16L4 15L5 15L5 14L4 14L4 13ZM19 14L19 17L22 17L22 19L23 19L23 21L22 21L22 20L21 20L21 22L23 22L23 21L27 21L27 20L28 20L28 18L23 18L23 17L28 17L28 16L25 16L25 15L24 15L24 14L23 14L23 15L22 15L22 14L21 14L21 15L20 15L20 14ZM6 15L6 16L7 16L7 15ZM21 15L21 16L22 16L22 17L23 17L23 16L24 16L24 15L23 15L23 16L22 16L22 15ZM13 16L13 18L14 18L14 17L16 17L16 16ZM6 17L6 18L7 18L7 19L6 19L6 20L7 20L7 21L6 21L6 22L7 22L7 23L8 23L8 19L9 19L9 18L8 18L8 17ZM1 19L1 20L2 20L2 22L3 22L3 23L4 23L4 22L3 22L3 21L4 21L4 20L3 20L3 19ZM24 19L24 20L25 20L25 19ZM26 19L26 20L27 20L27 19ZM0 21L0 25L1 25L1 21ZM13 21L13 24L12 24L12 25L13 25L13 28L14 28L14 27L15 27L15 26L16 26L16 27L17 27L17 28L18 28L18 26L19 26L19 25L13 25L13 24L15 24L15 23L14 23L14 22L16 22L16 24L18 24L18 23L20 23L20 22L18 22L18 23L17 23L17 21ZM32 21L32 22L33 22L33 21ZM25 22L25 24L28 24L28 23L27 23L27 22ZM2 24L2 25L4 25L4 24ZM10 24L10 26L9 26L9 27L10 27L10 28L9 28L9 29L12 29L12 28L11 28L11 27L12 27L12 26L11 26L11 24ZM25 25L25 28L28 28L28 25ZM10 26L10 27L11 27L11 26ZM26 26L26 27L27 27L27 26ZM23 27L23 29L24 29L24 27ZM21 28L21 29L22 29L22 28ZM32 28L32 29L33 29L33 28ZM14 30L14 31L15 31L15 32L12 32L12 33L19 33L19 30L18 30L18 32L16 32L16 30ZM21 31L21 32L22 32L22 31ZM29 31L29 32L30 32L30 31ZM0 0L0 7L7 7L7 0ZM1 1L1 6L6 6L6 1ZM2 2L2 5L5 5L5 2ZM26 0L26 7L33 7L33 0ZM27 1L27 6L32 6L32 1ZM28 2L28 5L31 5L31 2ZM0 26L0 33L7 33L7 26ZM1 27L1 32L6 32L6 27ZM2 28L2 31L5 31L5 28Z" fill="#000000"/></g></g></svg>
