<?xml version="1.0" encoding="UTF-8"?>
<svg xmlns="http://www.w3.org/2000/svg" version="1.1" width="200" height="200" viewBox="0 0 200 200"><rect x="0" y="0" width="200" height="200" fill="#ffffff"/><g transform="scale(4.878)"><g transform="translate(0,0)"><path fill-rule="evenodd" d="M10 0L10 1L8 1L8 2L10 2L10 1L11 1L11 2L12 2L12 1L13 1L13 3L12 3L12 4L11 4L11 5L10 5L10 4L9 4L9 3L8 3L8 4L9 4L9 5L8 5L8 7L9 7L9 8L6 8L6 9L7 9L7 10L6 10L6 11L7 11L7 10L10 10L10 11L11 11L11 10L10 10L10 9L11 9L11 8L12 8L12 7L13 7L13 6L12 6L12 5L13 5L13 3L14 3L14 4L15 4L15 6L14 6L14 8L13 8L13 9L12 9L12 11L13 11L13 9L15 9L15 8L16 8L16 10L15 10L15 11L14 11L14 12L15 12L15 13L13 13L13 12L11 12L11 13L10 13L10 14L8 14L8 13L7 13L7 12L5 12L5 14L4 14L4 13L3 13L3 12L4 12L4 11L5 11L5 8L0 8L0 9L2 9L2 13L3 13L3 15L1 15L1 11L0 11L0 16L3 16L3 17L2 17L2 18L1 18L1 19L0 19L0 20L1 20L1 19L2 19L2 18L4 18L4 19L3 19L3 20L2 20L2 22L1 22L1 23L0 23L0 24L1 24L1 25L0 25L0 33L1 33L1 30L2 30L2 32L3 32L3 30L4 30L4 29L2 29L2 28L4 28L4 27L7 27L7 28L6 28L6 29L7 29L7 28L9 28L9 27L8 27L8 25L9 25L9 26L10 26L10 27L11 27L11 26L12 26L12 27L13 27L13 26L12 26L12 25L16 25L16 24L13 24L13 23L12 23L12 25L11 25L11 24L10 24L10 25L9 25L9 23L10 23L10 22L11 22L11 20L10 20L10 19L9 19L9 18L10 18L10 17L11 17L11 18L13 18L13 20L14 20L14 21L16 21L16 20L14 20L14 19L16 19L16 18L17 18L17 17L18 17L18 20L17 20L17 23L18 23L18 24L17 24L17 25L18 25L18 27L19 27L19 28L17 28L17 27L16 27L16 26L15 26L15 27L14 27L14 28L16 28L16 29L17 29L17 30L18 30L18 32L17 32L17 31L16 31L16 30L15 30L15 29L13 29L13 28L12 28L12 29L13 29L13 30L11 30L11 29L9 29L9 30L5 30L5 32L4 32L4 33L8 33L8 35L9 35L9 36L8 36L8 41L10 41L10 40L11 40L11 39L10 39L10 40L9 40L9 37L10 37L10 38L11 38L11 37L10 37L10 35L11 35L11 34L12 34L12 33L13 33L13 35L12 35L12 36L14 36L14 37L17 37L17 39L18 39L18 37L20 37L20 38L24 38L24 39L26 39L26 38L27 38L27 41L28 41L28 40L29 40L29 41L32 41L32 40L33 40L33 39L32 39L32 38L34 38L34 41L35 41L35 40L36 40L36 41L37 41L37 40L38 40L38 41L39 41L39 40L40 40L40 39L39 39L39 38L38 38L38 37L40 37L40 38L41 38L41 37L40 37L40 36L41 36L41 35L40 35L40 34L41 34L41 32L40 32L40 34L39 34L39 36L38 36L38 35L37 35L37 34L38 34L38 31L39 31L39 30L38 30L38 31L37 31L37 29L32 29L32 28L34 28L34 27L32 27L32 28L31 28L31 27L30 27L30 28L29 28L29 29L30 29L30 30L33 30L33 31L32 31L32 34L31 34L31 33L30 33L30 32L31 32L31 31L30 31L30 32L28 32L28 30L26 30L26 29L27 29L27 28L25 28L25 26L24 26L24 27L23 27L23 26L22 26L22 27L21 27L21 28L24 28L24 29L22 29L22 31L20 31L20 32L19 32L19 30L20 30L20 29L19 29L19 28L20 28L20 27L19 27L19 25L20 25L20 26L21 26L21 25L20 25L20 24L22 24L22 25L23 25L23 24L25 24L25 25L27 25L27 24L29 24L29 25L30 25L30 24L31 24L31 23L30 23L30 22L32 22L32 23L33 23L33 25L34 25L34 26L36 26L36 28L38 28L38 29L40 29L40 30L41 30L41 27L40 27L40 26L41 26L41 23L40 23L40 22L41 22L41 21L40 21L40 20L41 20L41 19L40 19L40 18L41 18L41 17L40 17L40 16L41 16L41 15L39 15L39 14L38 14L38 15L39 15L39 16L38 16L38 17L40 17L40 18L39 18L39 20L38 20L38 18L37 18L37 16L36 16L36 14L37 14L37 13L36 13L36 12L38 12L38 13L40 13L40 12L41 12L41 11L40 11L40 10L41 10L41 9L40 9L40 8L39 8L39 10L37 10L37 9L38 9L38 8L37 8L37 9L36 9L36 8L35 8L35 9L34 9L34 8L33 8L33 9L30 9L30 8L29 8L29 9L28 9L28 7L29 7L29 6L28 6L28 5L26 5L26 3L25 3L25 4L24 4L24 2L22 2L22 0L19 0L19 1L17 1L17 0L16 0L16 1L14 1L14 0L12 0L12 1L11 1L11 0ZM23 0L23 1L24 1L24 0ZM28 0L28 1L27 1L27 4L28 4L28 2L30 2L30 3L29 3L29 5L30 5L30 7L31 7L31 8L32 8L32 7L33 7L33 6L32 6L32 7L31 7L31 5L32 5L32 4L33 4L33 2L32 2L32 3L31 3L31 1L33 1L33 0ZM19 1L19 2L20 2L20 3L19 3L19 4L17 4L17 3L18 3L18 2L17 2L17 3L16 3L16 5L19 5L19 8L18 8L18 6L17 6L17 8L18 8L18 9L17 9L17 11L16 11L16 12L19 12L19 13L20 13L20 14L19 14L19 15L18 15L18 14L16 14L16 13L15 13L15 14L16 14L16 15L12 15L12 16L18 16L18 17L21 17L21 18L22 18L22 16L21 16L21 13L20 13L20 12L21 12L21 11L24 11L24 10L25 10L25 12L26 12L26 14L25 14L25 16L24 16L24 18L23 18L23 19L22 19L22 20L21 20L21 19L20 19L20 18L19 18L19 19L20 19L20 20L19 20L19 21L18 21L18 23L20 23L20 22L21 22L21 21L22 21L22 22L23 22L23 23L22 23L22 24L23 24L23 23L24 23L24 22L23 22L23 21L25 21L25 24L26 24L26 22L28 22L28 23L29 23L29 24L30 24L30 23L29 23L29 21L26 21L26 20L30 20L30 19L29 19L29 18L30 18L30 17L31 17L31 19L32 19L32 20L31 20L31 21L33 21L33 22L35 22L35 23L36 23L36 24L34 24L34 25L36 25L36 24L37 24L37 26L38 26L38 28L39 28L39 26L38 26L38 24L40 24L40 23L39 23L39 22L37 22L37 23L36 23L36 22L35 22L35 21L38 21L38 20L37 20L37 19L35 19L35 18L34 18L34 17L36 17L36 16L34 16L34 17L33 17L33 16L32 16L32 15L33 15L33 11L32 11L32 10L31 10L31 11L32 11L32 12L30 12L30 11L29 11L29 10L30 10L30 9L29 9L29 10L28 10L28 9L26 9L26 10L25 10L25 9L24 9L24 8L23 8L23 7L24 7L24 5L23 5L23 7L22 7L22 6L21 6L21 4L23 4L23 3L21 3L21 1ZM25 1L25 2L26 2L26 1ZM14 2L14 3L15 3L15 2ZM20 3L20 4L19 4L19 5L20 5L20 4L21 4L21 3ZM9 5L9 7L10 7L10 5ZM11 6L11 7L12 7L12 6ZM15 6L15 7L16 7L16 6ZM20 6L20 7L21 7L21 8L20 8L20 9L18 9L18 10L20 10L20 11L21 11L21 10L24 10L24 9L23 9L23 8L22 8L22 7L21 7L21 6ZM25 6L25 8L27 8L27 7L28 7L28 6L27 6L27 7L26 7L26 6ZM21 8L21 9L22 9L22 8ZM35 9L35 10L34 10L34 11L36 11L36 9ZM26 10L26 11L27 11L27 13L29 13L29 11L28 11L28 10ZM38 11L38 12L39 12L39 11ZM23 12L23 13L24 13L24 12ZM34 12L34 13L35 13L35 12ZM6 13L6 14L5 14L5 15L4 15L4 17L5 17L5 19L4 19L4 20L7 20L7 19L8 19L8 18L9 18L9 17L10 17L10 16L11 16L11 15L9 15L9 16L8 16L8 15L6 15L6 14L7 14L7 13ZM11 13L11 14L13 14L13 13ZM31 13L31 14L32 14L32 13ZM23 14L23 15L24 15L24 14ZM27 14L27 15L26 15L26 16L25 16L25 17L27 17L27 19L28 19L28 18L29 18L29 17L30 17L30 16L29 16L29 17L28 17L28 14ZM34 14L34 15L35 15L35 14ZM5 15L5 16L6 16L6 17L7 17L7 16L6 16L6 15ZM19 15L19 16L20 16L20 15ZM31 16L31 17L32 17L32 18L33 18L33 20L34 20L34 18L33 18L33 17L32 17L32 16ZM6 18L6 19L7 19L7 18ZM24 18L24 20L25 20L25 19L26 19L26 18ZM20 20L20 21L19 21L19 22L20 22L20 21L21 21L21 20ZM6 21L6 22L5 22L5 23L3 23L3 25L2 25L2 26L3 26L3 27L4 27L4 26L7 26L7 25L4 25L4 24L5 24L5 23L6 23L6 24L8 24L8 23L9 23L9 22L8 22L8 23L6 23L6 22L7 22L7 21ZM12 21L12 22L13 22L13 21ZM14 22L14 23L16 23L16 22ZM18 24L18 25L19 25L19 24ZM31 25L31 26L32 26L32 25ZM26 26L26 27L28 27L28 26ZM18 29L18 30L19 30L19 29ZM10 30L10 31L6 31L6 32L11 32L11 30ZM13 30L13 31L12 31L12 32L14 32L14 31L15 31L15 30ZM23 30L23 32L20 32L20 34L18 34L18 33L19 33L19 32L18 32L18 33L17 33L17 32L16 32L16 33L14 33L14 34L16 34L16 35L14 35L14 36L18 36L18 35L20 35L20 36L21 36L21 37L23 37L23 36L26 36L26 35L27 35L27 36L30 36L30 33L27 33L27 31L26 31L26 30ZM34 30L34 31L33 31L33 32L36 32L36 31L35 31L35 30ZM24 31L24 33L23 33L23 34L24 34L24 35L25 35L25 33L26 33L26 32L25 32L25 31ZM9 33L9 34L11 34L11 33ZM21 33L21 36L22 36L22 33ZM33 33L33 36L36 36L36 33ZM17 34L17 35L18 35L18 34ZM27 34L27 35L28 35L28 34ZM34 34L34 35L35 35L35 34ZM31 35L31 37L27 37L27 38L28 38L28 39L29 39L29 40L31 40L31 37L32 37L32 35ZM37 36L37 37L34 37L34 38L35 38L35 39L36 39L36 38L37 38L37 39L38 39L38 40L39 40L39 39L38 39L38 38L37 38L37 37L38 37L38 36ZM12 37L12 38L13 38L13 37ZM24 37L24 38L26 38L26 37ZM14 38L14 39L16 39L16 38ZM12 39L12 41L15 41L15 40L13 40L13 39ZM19 39L19 40L17 40L17 41L19 41L19 40L20 40L20 41L21 41L21 40L22 40L22 39L21 39L21 40L20 40L20 39ZM24 40L24 41L26 41L26 40ZM0 0L0 7L7 7L7 0ZM1 1L1 6L6 6L6 1ZM2 2L2 5L5 5L5 2ZM34 0L34 7L41 7L41 0ZM35 1L35 6L40 6L40 1ZM36 2L36 5L39 5L39 2ZM0 34L0 41L7 41L7 34ZM1 35L1 40L6 40L6 35ZM2 36L2 39L5 39L5 36Z" fill="#000000"/></g></g></svg>
