<?xml version="1.0" encoding="UTF-8"?>
<svg xmlns="http://www.w3.org/2000/svg" version="1.1" width="200" height="200" viewBox="0 0 200 200"><rect x="0" y="0" width="200" height="200" fill="#ffffff"/><g transform="scale(6.061)"><g transform="translate(0,0)"><path fill-rule="evenodd" d="M11 0L11 1L9 1L9 2L11 2L11 1L14 1L14 2L15 2L15 1L14 1L14 0ZM17 0L17 2L16 2L16 3L15 3L15 4L16 4L16 7L17 7L17 6L18 6L18 8L17 8L17 9L18 9L18 10L21 10L21 9L19 9L19 8L20 8L20 7L21 7L21 6L20 6L20 7L19 7L19 5L20 5L20 2L19 2L19 0ZM20 0L20 1L21 1L21 4L23 4L23 5L22 5L22 7L23 7L23 5L24 5L24 8L25 8L25 4L23 4L23 3L25 3L25 0L24 0L24 2L23 2L23 3L22 3L22 1L23 1L23 0ZM12 2L12 4L13 4L13 5L11 5L11 6L10 6L10 8L9 8L9 9L8 9L8 8L5 8L5 9L4 9L4 10L3 10L3 9L2 9L2 8L0 8L0 9L1 9L1 10L0 10L0 11L1 11L1 10L3 10L3 12L2 12L2 16L4 16L4 17L5 17L5 18L2 18L2 19L1 19L1 18L0 18L0 25L2 25L2 24L1 24L1 21L2 21L2 23L4 23L4 24L3 24L3 25L4 25L4 24L5 24L5 25L8 25L8 28L9 28L9 30L10 30L10 31L8 31L8 33L11 33L11 31L12 31L12 32L13 32L13 33L14 33L14 32L13 32L13 31L12 31L12 28L11 28L11 25L8 25L8 24L9 24L9 23L10 23L10 21L9 21L9 20L11 20L11 19L12 19L12 21L14 21L14 25L15 25L15 27L14 27L14 26L13 26L13 24L12 24L12 23L13 23L13 22L11 22L11 24L12 24L12 26L13 26L13 27L14 27L14 28L13 28L13 30L14 30L14 31L18 31L18 32L15 32L15 33L19 33L19 31L21 31L21 28L20 28L20 30L16 30L16 28L17 28L17 29L19 29L19 27L18 27L18 28L17 28L17 27L16 27L16 25L17 25L17 26L22 26L22 27L24 27L24 29L23 29L23 28L22 28L22 31L23 31L23 32L24 32L24 33L25 33L25 32L24 32L24 31L25 31L25 29L27 29L27 30L28 30L28 31L27 31L27 32L26 32L26 33L28 33L28 32L29 32L29 33L30 33L30 32L31 32L31 33L32 33L32 32L31 32L31 29L32 29L32 28L33 28L33 27L32 27L32 26L33 26L33 25L32 25L32 24L33 24L33 23L30 23L30 24L29 24L29 23L28 23L28 22L29 22L29 21L30 21L30 20L31 20L31 19L30 19L30 18L31 18L31 17L32 17L32 16L33 16L33 15L32 15L32 14L33 14L33 12L32 12L32 9L30 9L30 8L28 8L28 9L22 9L22 10L24 10L24 11L23 11L23 12L25 12L25 13L22 13L22 12L21 12L21 11L20 11L20 13L19 13L19 11L18 11L18 16L17 16L17 13L16 13L16 12L17 12L17 10L16 10L16 8L15 8L15 6L14 6L14 8L13 8L13 9L12 9L12 7L13 7L13 5L14 5L14 3L13 3L13 2ZM17 2L17 5L19 5L19 3L18 3L18 2ZM8 3L8 5L10 5L10 4L9 4L9 3ZM8 6L8 7L9 7L9 6ZM11 6L11 7L12 7L12 6ZM10 8L10 10L9 10L9 11L10 11L10 13L9 13L9 14L8 14L8 13L6 13L6 12L8 12L8 9L6 9L6 10L4 10L4 11L6 11L6 12L5 12L5 13L4 13L4 12L3 12L3 13L4 13L4 14L3 14L3 15L4 15L4 14L5 14L5 15L6 15L6 16L7 16L7 17L6 17L6 18L5 18L5 19L3 19L3 21L5 21L5 19L6 19L6 20L7 20L7 21L6 21L6 22L4 22L4 23L6 23L6 24L7 24L7 23L8 23L8 22L7 22L7 21L8 21L8 20L9 20L9 19L11 19L11 18L12 18L12 19L13 19L13 20L15 20L15 18L16 18L16 17L13 17L13 16L16 16L16 15L15 15L15 12L16 12L16 11L14 11L14 9L13 9L13 10L12 10L12 9L11 9L11 8ZM6 10L6 11L7 11L7 10ZM10 10L10 11L11 11L11 10ZM29 10L29 11L25 11L25 12L27 12L27 14L28 14L28 15L26 15L26 16L25 16L25 14L26 14L26 13L25 13L25 14L23 14L23 15L24 15L24 16L23 16L23 17L22 17L22 13L21 13L21 16L20 16L20 14L19 14L19 17L17 17L17 19L16 19L16 21L17 21L17 22L16 22L16 23L15 23L15 25L16 25L16 23L17 23L17 25L18 25L18 22L19 22L19 23L20 23L20 22L21 22L21 21L22 21L22 19L21 19L21 21L20 21L20 19L19 19L19 21L17 21L17 20L18 20L18 18L19 18L19 17L21 17L21 18L23 18L23 17L27 17L27 19L29 19L29 20L30 20L30 19L29 19L29 18L30 18L30 17L31 17L31 16L32 16L32 15L31 15L31 16L30 16L30 15L29 15L29 14L30 14L30 13L31 13L31 14L32 14L32 13L31 13L31 12L30 12L30 13L29 13L29 11L30 11L30 10ZM12 11L12 12L11 12L11 13L13 13L13 11ZM0 12L0 15L1 15L1 12ZM6 14L6 15L7 15L7 16L8 16L8 17L9 17L9 18L8 18L8 19L9 19L9 18L10 18L10 17L9 17L9 16L10 16L10 15L11 15L11 17L12 17L12 18L13 18L13 19L14 19L14 18L13 18L13 17L12 17L12 15L13 15L13 14L9 14L9 15L7 15L7 14ZM28 15L28 17L29 17L29 15ZM6 18L6 19L7 19L7 18ZM24 18L24 19L23 19L23 21L26 21L26 22L25 22L25 24L27 24L27 22L28 22L28 21L27 21L27 20L26 20L26 19L25 19L25 18ZM32 18L32 20L33 20L33 18ZM24 19L24 20L25 20L25 19ZM19 21L19 22L20 22L20 21ZM6 22L6 23L7 23L7 22ZM23 22L23 23L21 23L21 25L22 25L22 26L24 26L24 25L23 25L23 24L24 24L24 22ZM19 24L19 25L20 25L20 24ZM30 24L30 25L29 25L29 28L30 28L30 29L28 29L28 30L29 30L29 32L30 32L30 29L31 29L31 28L30 28L30 27L31 27L31 26L30 26L30 25L31 25L31 24ZM25 25L25 28L28 28L28 25ZM9 26L9 27L10 27L10 26ZM26 26L26 27L27 27L27 26ZM14 28L14 29L15 29L15 28ZM10 29L10 30L11 30L11 29ZM23 30L23 31L24 31L24 30ZM32 30L32 31L33 31L33 30ZM0 0L0 7L7 7L7 0ZM1 1L1 6L6 6L6 1ZM2 2L2 5L5 5L5 2ZM26 0L26 7L33 7L33 0ZM27 1L27 6L32 6L32 1ZM28 2L28 5L31 5L31 2ZM0 26L0 33L7 33L7 26ZM1 27L1 32L6 32L6 27ZM2 28L2 31L5 31L5 28Z" fill="#000000"/></g></g></svg>
