<?xml version="1.0" encoding="UTF-8"?>
<svg xmlns="http://www.w3.org/2000/svg" version="1.1" width="200" height="200" viewBox="0 0 200 200"><rect x="0" y="0" width="200" height="200" fill="#ffffff"/><g transform="scale(6.061)"><g transform="translate(0,0)"><path fill-rule="evenodd" d="M8 0L8 2L9 2L9 3L10 3L10 2L9 2L9 1L11 1L11 2L12 2L12 0ZM13 0L13 1L14 1L14 2L13 2L13 3L11 3L11 5L9 5L9 4L8 4L8 9L10 9L10 7L11 7L11 5L12 5L12 7L13 7L13 5L16 5L16 4L17 4L17 6L16 6L16 7L15 7L15 6L14 6L14 8L15 8L15 11L16 11L16 13L14 13L14 14L13 14L13 15L12 15L12 14L11 14L11 12L12 12L12 13L13 13L13 10L14 10L14 9L13 9L13 8L11 8L11 9L12 9L12 11L11 11L11 10L6 10L6 9L7 9L7 8L5 8L5 9L3 9L3 8L0 8L0 12L1 12L1 10L2 10L2 9L3 9L3 10L6 10L6 11L4 11L4 12L3 12L3 11L2 11L2 12L3 12L3 13L2 13L2 14L3 14L3 13L4 13L4 12L6 12L6 13L5 13L5 14L6 14L6 15L4 15L4 16L0 16L0 18L1 18L1 19L2 19L2 20L3 20L3 21L5 21L5 23L4 23L4 22L3 22L3 24L0 24L0 25L3 25L3 24L5 24L5 25L7 25L7 24L6 24L6 23L8 23L8 24L9 24L9 23L11 23L11 24L12 24L12 23L14 23L14 22L12 22L12 20L10 20L10 18L11 18L11 19L12 19L12 18L13 18L13 19L14 19L14 20L15 20L15 23L17 23L17 22L18 22L18 21L19 21L19 24L18 24L18 26L16 26L16 24L15 24L15 26L12 26L12 25L10 25L10 26L9 26L9 25L8 25L8 26L9 26L9 27L8 27L8 28L9 28L9 29L10 29L10 30L11 30L11 31L10 31L10 32L11 32L11 33L13 33L13 31L14 31L14 30L13 30L13 31L12 31L12 29L13 29L13 28L12 28L12 27L14 27L14 28L15 28L15 27L16 27L16 29L15 29L15 31L21 31L21 29L20 29L20 28L21 28L21 26L22 26L22 25L21 25L21 23L22 23L22 21L20 21L20 20L21 20L21 19L22 19L22 20L23 20L23 23L27 23L27 24L23 24L23 25L24 25L24 28L23 28L23 27L22 27L22 28L23 28L23 29L22 29L22 31L23 31L23 32L22 32L22 33L26 33L26 32L25 32L25 30L24 30L24 29L27 29L27 30L28 30L28 31L27 31L27 33L29 33L29 30L28 30L28 29L29 29L29 27L30 27L30 26L29 26L29 25L30 25L30 24L29 24L29 23L30 23L30 22L31 22L31 26L32 26L32 27L33 27L33 25L32 25L32 24L33 24L33 18L32 18L32 20L31 20L31 21L30 21L30 22L27 22L27 21L28 21L28 20L29 20L29 19L30 19L30 18L29 18L29 19L27 19L27 15L29 15L29 14L27 14L27 12L25 12L25 13L26 13L26 14L27 14L27 15L25 15L25 14L24 14L24 13L22 13L22 12L21 12L21 10L20 10L20 9L21 9L21 8L20 8L20 7L21 7L21 6L20 6L20 7L19 7L19 6L18 6L18 4L20 4L20 5L21 5L21 4L22 4L22 7L23 7L23 4L22 4L22 3L24 3L24 5L25 5L25 3L24 3L24 2L22 2L22 1L23 1L23 0L20 0L20 1L21 1L21 2L20 2L20 3L19 3L19 2L18 2L18 1L19 1L19 0L17 0L17 1L16 1L16 2L15 2L15 1L14 1L14 0ZM24 0L24 1L25 1L25 0ZM14 2L14 3L15 3L15 4L16 4L16 3L15 3L15 2ZM17 3L17 4L18 4L18 3ZM9 6L9 7L10 7L10 6ZM17 6L17 7L16 7L16 8L17 8L17 9L16 9L16 10L18 10L18 11L17 11L17 13L16 13L16 14L19 14L19 13L20 13L20 11L19 11L19 9L18 9L18 8L19 8L19 7L18 7L18 6ZM24 6L24 7L25 7L25 6ZM22 8L22 9L23 9L23 10L22 10L22 11L23 11L23 12L24 12L24 11L25 11L25 10L26 10L26 9L27 9L27 11L28 11L28 9L29 9L29 13L30 13L30 11L31 11L31 13L32 13L32 15L33 15L33 12L32 12L32 11L33 11L33 8L31 8L31 10L30 10L30 9L29 9L29 8L25 8L25 10L24 10L24 8ZM31 10L31 11L32 11L32 10ZM6 11L6 12L8 12L8 11ZM9 11L9 12L10 12L10 11ZM18 12L18 13L19 13L19 12ZM0 13L0 14L1 14L1 13ZM6 13L6 14L7 14L7 13ZM8 13L8 14L9 14L9 13ZM21 13L21 14L20 14L20 15L16 15L16 16L17 16L17 17L16 17L16 18L18 18L18 16L21 16L21 18L23 18L23 16L24 16L24 19L23 19L23 20L24 20L24 22L25 22L25 20L26 20L26 19L25 19L25 16L24 16L24 15L23 15L23 14L22 14L22 13ZM14 14L14 15L13 15L13 16L12 16L12 15L10 15L10 16L9 16L9 18L8 18L8 15L6 15L6 16L5 16L5 17L3 17L3 19L4 19L4 20L5 20L5 21L6 21L6 22L9 22L9 21L10 21L10 20L9 20L9 18L10 18L10 16L11 16L11 17L14 17L14 18L15 18L15 14ZM30 14L30 15L31 15L31 14ZM6 16L6 17L7 17L7 16ZM29 16L29 17L30 17L30 16ZM32 16L32 17L33 17L33 16ZM4 18L4 19L5 19L5 20L6 20L6 21L9 21L9 20L8 20L8 18L6 18L6 19L5 19L5 18ZM6 19L6 20L7 20L7 19ZM15 19L15 20L16 20L16 22L17 22L17 21L18 21L18 19ZM19 19L19 20L20 20L20 19ZM31 21L31 22L32 22L32 21ZM0 22L0 23L2 23L2 22ZM20 22L20 23L21 23L21 22ZM19 24L19 25L20 25L20 24ZM25 25L25 28L28 28L28 25ZM26 26L26 27L27 27L27 26ZM9 27L9 28L11 28L11 27ZM17 27L17 29L16 29L16 30L18 30L18 28L20 28L20 27ZM31 28L31 29L32 29L32 28ZM19 29L19 30L20 30L20 29ZM8 30L8 33L9 33L9 30ZM23 30L23 31L24 31L24 30ZM30 30L30 31L31 31L31 30ZM32 30L32 31L33 31L33 30ZM11 31L11 32L12 32L12 31ZM15 32L15 33L16 33L16 32ZM18 32L18 33L21 33L21 32ZM32 32L32 33L33 33L33 32ZM0 0L0 7L7 7L7 0ZM1 1L1 6L6 6L6 1ZM2 2L2 5L5 5L5 2ZM26 0L26 7L33 7L33 0ZM27 1L27 6L32 6L32 1ZM28 2L28 5L31 5L31 2ZM0 26L0 33L7 33L7 26ZM1 27L1 32L6 32L6 27ZM2 28L2 31L5 31L5 28Z" fill="#000000"/></g></g></svg>
