<?xml version="1.0" encoding="UTF-8"?>
<svg xmlns="http://www.w3.org/2000/svg" version="1.1" width="200" height="200" viewBox="0 0 200 200"><rect x="0" y="0" width="200" height="200" fill="#ffffff"/><g transform="scale(2.899)"><g transform="translate(0,0)"><path fill-rule="evenodd" d="M8 0L8 4L9 4L9 5L8 5L8 7L9 7L9 6L10 6L10 9L9 9L9 11L10 11L10 13L9 13L9 12L8 12L8 13L9 13L9 14L8 14L8 15L9 15L9 16L8 16L8 17L9 17L9 18L8 18L8 23L7 23L7 22L6 22L6 21L7 21L7 20L5 20L5 21L4 21L4 23L3 23L3 18L4 18L4 19L5 19L5 18L6 18L6 19L7 19L7 18L6 18L6 17L7 17L7 16L6 16L6 15L7 15L7 14L6 14L6 13L7 13L7 12L6 12L6 13L5 13L5 11L2 11L2 12L0 12L0 13L1 13L1 14L0 14L0 15L1 15L1 16L0 16L0 19L1 19L1 20L2 20L2 23L3 23L3 25L2 25L2 26L3 26L3 27L2 27L2 28L3 28L3 29L1 29L1 26L0 26L0 29L1 29L1 31L2 31L2 33L1 33L1 34L3 34L3 35L4 35L4 36L3 36L3 37L8 37L8 38L9 38L9 39L7 39L7 38L5 38L5 39L4 39L4 40L3 40L3 39L0 39L0 40L2 40L2 41L1 41L1 42L2 42L2 43L3 43L3 44L1 44L1 45L0 45L0 50L1 50L1 48L3 48L3 49L2 49L2 50L3 50L3 51L4 51L4 52L1 52L1 51L0 51L0 54L1 54L1 55L0 55L0 56L1 56L1 57L2 57L2 59L3 59L3 58L4 58L4 59L7 59L7 60L6 60L6 61L7 61L7 60L8 60L8 62L10 62L10 61L11 61L11 62L12 62L12 61L14 61L14 60L16 60L16 61L17 61L17 58L16 58L16 59L15 59L15 57L16 57L16 56L17 56L17 57L20 57L20 58L19 58L19 59L21 59L21 58L22 58L22 59L24 59L24 60L25 60L25 58L26 58L26 57L27 57L27 59L26 59L26 61L31 61L31 59L30 59L30 58L31 58L31 57L34 57L34 58L32 58L32 64L29 64L29 63L31 63L31 62L29 62L29 63L28 63L28 62L27 62L27 64L26 64L26 63L24 63L24 64L25 64L25 65L24 65L24 66L25 66L25 67L26 67L26 69L29 69L29 68L30 68L30 69L34 69L34 68L35 68L35 69L36 69L36 65L37 65L37 69L38 69L38 68L39 68L39 69L40 69L40 68L42 68L42 67L43 67L43 66L44 66L44 65L45 65L45 66L46 66L46 64L47 64L47 63L46 63L46 61L45 61L45 59L46 59L46 60L47 60L47 59L46 59L46 58L45 58L45 57L47 57L47 58L48 58L48 61L47 61L47 62L48 62L48 66L47 66L47 67L46 67L46 68L45 68L45 67L44 67L44 68L43 68L43 69L46 69L46 68L47 68L47 69L52 69L52 68L50 68L50 67L51 67L51 65L52 65L52 66L53 66L53 65L52 65L52 63L53 63L53 64L55 64L55 65L54 65L54 67L53 67L53 69L57 69L57 67L58 67L58 64L59 64L59 66L62 66L62 67L63 67L63 69L64 69L64 68L66 68L66 67L67 67L67 66L69 66L69 64L67 64L67 65L65 65L65 60L63 60L63 59L62 59L62 58L64 58L64 57L65 57L65 59L66 59L66 58L68 58L68 57L69 57L69 55L68 55L68 53L69 53L69 52L68 52L68 50L66 50L66 49L65 49L65 46L64 46L64 45L66 45L66 46L67 46L67 44L65 44L65 43L66 43L66 42L68 42L68 41L69 41L69 40L68 40L68 37L69 37L69 36L68 36L68 34L67 34L67 33L69 33L69 32L68 32L68 31L67 31L67 29L69 29L69 27L68 27L68 25L66 25L66 26L64 26L64 27L63 27L63 25L64 25L64 24L65 24L65 23L68 23L68 20L69 20L69 19L67 19L67 18L68 18L68 17L69 17L69 16L68 16L68 17L67 17L67 16L65 16L65 15L67 15L67 14L68 14L68 13L69 13L69 11L68 11L68 10L66 10L66 9L69 9L69 8L65 8L65 9L64 9L64 8L63 8L63 9L62 9L62 11L61 11L61 8L60 8L60 9L59 9L59 11L58 11L58 12L57 12L57 11L56 11L56 12L55 12L55 13L54 13L54 11L55 11L55 10L56 10L56 9L57 9L57 8L59 8L59 4L58 4L58 3L59 3L59 2L58 2L58 1L61 1L61 0L58 0L58 1L55 1L55 0L52 0L52 1L53 1L53 3L52 3L52 2L51 2L51 3L50 3L50 5L51 5L51 4L52 4L52 7L53 7L53 8L55 8L55 9L54 9L54 10L52 10L52 9L51 9L51 8L49 8L49 4L48 4L48 7L47 7L47 5L45 5L45 6L44 6L44 4L43 4L43 3L45 3L45 2L44 2L44 0L42 0L42 1L41 1L41 0L40 0L40 1L41 1L41 2L42 2L42 1L43 1L43 3L40 3L40 4L39 4L39 2L37 2L37 1L39 1L39 0L37 0L37 1L36 1L36 2L35 2L35 1L34 1L34 2L33 2L33 0L31 0L31 2L33 2L33 3L32 3L32 5L30 5L30 3L29 3L29 2L28 2L28 1L27 1L27 0L26 0L26 1L25 1L25 0L24 0L24 3L23 3L23 2L22 2L22 1L23 1L23 0L22 0L22 1L21 1L21 2L20 2L20 1L19 1L19 0L18 0L18 1L16 1L16 0L15 0L15 1L14 1L14 0L13 0L13 1L11 1L11 2L10 2L10 3L14 3L14 4L13 4L13 5L14 5L14 7L13 7L13 6L12 6L12 7L11 7L11 4L9 4L9 1L10 1L10 0ZM49 0L49 2L48 2L48 3L49 3L49 2L50 2L50 1L51 1L51 0ZM46 1L46 2L47 2L47 1ZM16 2L16 3L17 3L17 2ZM21 2L21 5L22 5L22 2ZM26 2L26 3L25 3L25 5L26 5L26 6L25 6L25 7L24 7L24 6L23 6L23 7L22 7L22 6L21 6L21 7L20 7L20 5L19 5L19 4L20 4L20 3L18 3L18 5L19 5L19 7L20 7L20 9L17 9L17 8L18 8L18 6L17 6L17 4L16 4L16 5L15 5L15 8L13 8L13 7L12 7L12 9L10 9L10 10L12 10L12 13L10 13L10 16L9 16L9 17L13 17L13 18L11 18L11 19L12 19L12 21L11 21L11 22L10 22L10 23L11 23L11 22L12 22L12 24L10 24L10 25L11 25L11 26L13 26L13 25L14 25L14 24L16 24L16 25L15 25L15 27L13 27L13 28L11 28L11 29L9 29L9 30L7 30L7 29L8 29L8 28L9 28L9 27L10 27L10 26L9 26L9 27L8 27L8 26L7 26L7 25L8 25L8 24L9 24L9 23L8 23L8 24L7 24L7 23L6 23L6 22L5 22L5 23L4 23L4 24L5 24L5 25L3 25L3 26L4 26L4 28L5 28L5 29L4 29L4 31L6 31L6 32L7 32L7 31L11 31L11 32L9 32L9 33L10 33L10 34L9 34L9 36L10 36L10 37L9 37L9 38L10 38L10 39L11 39L11 38L12 38L12 37L14 37L14 36L15 36L15 35L12 35L12 34L14 34L14 32L15 32L15 30L14 30L14 28L15 28L15 27L16 27L16 26L17 26L17 24L18 24L18 22L19 22L19 23L20 23L20 25L18 25L18 26L19 26L19 27L20 27L20 28L19 28L19 29L18 29L18 28L16 28L16 31L18 31L18 30L19 30L19 29L23 29L23 28L24 28L24 27L22 27L22 26L23 26L23 25L24 25L24 26L25 26L25 31L24 31L24 33L23 33L23 32L22 32L22 31L23 31L23 30L22 30L22 31L21 31L21 30L20 30L20 31L19 31L19 32L18 32L18 33L15 33L15 34L16 34L16 36L17 36L17 37L15 37L15 38L14 38L14 39L13 39L13 40L15 40L15 41L17 41L17 42L16 42L16 43L13 43L13 42L14 42L14 41L12 41L12 40L11 40L11 41L12 41L12 43L11 43L11 44L12 44L12 46L11 46L11 47L10 47L10 45L9 45L9 44L10 44L10 43L9 43L9 42L10 42L10 40L8 40L8 41L6 41L6 42L8 42L8 45L6 45L6 44L7 44L7 43L4 43L4 42L3 42L3 41L2 41L2 42L3 42L3 43L4 43L4 44L5 44L5 45L1 45L1 46L3 46L3 48L5 48L5 49L4 49L4 51L5 51L5 53L4 53L4 58L7 58L7 59L8 59L8 60L9 60L9 61L10 61L10 60L11 60L11 59L13 59L13 60L14 60L14 58L13 58L13 56L14 56L14 57L15 57L15 56L16 56L16 55L17 55L17 56L19 56L19 55L20 55L20 57L22 57L22 58L23 58L23 57L24 57L24 58L25 58L25 57L26 57L26 56L27 56L27 54L29 54L29 55L30 55L30 54L31 54L31 56L30 56L30 57L29 57L29 56L28 56L28 58L30 58L30 57L31 57L31 56L34 56L34 57L35 57L35 56L34 56L34 55L35 55L35 54L36 54L36 52L37 52L37 53L38 53L38 52L40 52L40 53L41 53L41 52L42 52L42 53L43 53L43 52L42 52L42 51L38 51L38 50L37 50L37 51L36 51L36 49L35 49L35 48L31 48L31 49L29 49L29 48L26 48L26 47L25 47L25 46L24 46L24 45L25 45L25 44L26 44L26 42L27 42L27 44L29 44L29 45L26 45L26 46L27 46L27 47L29 47L29 46L30 46L30 47L31 47L31 45L30 45L30 44L29 44L29 41L30 41L30 40L31 40L31 44L33 44L33 45L32 45L32 47L34 47L34 46L33 46L33 45L36 45L36 44L38 44L38 45L37 45L37 46L35 46L35 47L36 47L36 48L37 48L37 49L38 49L38 48L39 48L39 50L40 50L40 49L43 49L43 51L44 51L44 47L47 47L47 49L46 49L46 48L45 48L45 49L46 49L46 50L45 50L45 51L47 51L47 52L48 52L48 51L49 51L49 50L50 50L50 49L49 49L49 50L48 50L48 47L49 47L49 48L51 48L51 47L52 47L52 53L51 53L51 52L49 52L49 54L47 54L47 53L46 53L46 52L45 52L45 54L43 54L43 55L42 55L42 54L38 54L38 56L37 56L37 55L36 55L36 58L35 58L35 60L37 60L37 63L38 63L38 59L36 59L36 58L38 58L38 56L39 56L39 55L40 55L40 57L41 57L41 55L42 55L42 56L43 56L43 57L44 57L44 55L46 55L46 56L47 56L47 55L49 55L49 56L51 56L51 58L53 58L53 55L52 55L52 54L53 54L53 53L54 53L54 52L55 52L55 53L56 53L56 54L55 54L55 55L54 55L54 56L55 56L55 57L56 57L56 58L57 58L57 59L59 59L59 60L57 60L57 62L55 62L55 63L57 63L57 64L58 64L58 63L60 63L60 60L62 60L62 59L60 59L60 58L61 58L61 57L62 57L62 56L60 56L60 54L59 54L59 53L60 53L60 52L62 52L62 51L63 51L63 50L64 50L64 51L65 51L65 53L64 53L64 52L63 52L63 53L62 53L62 54L61 54L61 55L63 55L63 56L64 56L64 55L63 55L63 53L64 53L64 54L65 54L65 56L66 56L66 57L68 57L68 55L67 55L67 54L66 54L66 53L67 53L67 51L65 51L65 49L64 49L64 46L61 46L61 45L62 45L62 44L61 44L61 42L62 42L62 43L63 43L63 45L64 45L64 43L63 43L63 41L64 41L64 42L66 42L66 41L67 41L67 38L65 38L65 37L68 37L68 36L67 36L67 34L66 34L66 33L67 33L67 31L66 31L66 29L67 29L67 28L68 28L68 27L66 27L66 28L65 28L65 27L64 27L64 28L63 28L63 27L61 27L61 26L62 26L62 24L64 24L64 23L61 23L61 22L62 22L62 20L63 20L63 18L65 18L65 16L64 16L64 17L63 17L63 18L62 18L62 14L60 14L60 13L61 13L61 11L60 11L60 13L59 13L59 12L58 12L58 13L57 13L57 14L55 14L55 15L54 15L54 14L52 14L52 13L53 13L53 11L52 11L52 10L51 10L51 11L50 11L50 10L48 10L48 9L45 9L45 10L44 10L44 11L45 11L45 13L44 13L44 12L43 12L43 11L42 11L42 12L40 12L40 11L38 11L38 10L36 10L36 11L35 11L35 13L36 13L36 15L35 15L35 14L34 14L34 15L31 15L31 14L33 14L33 12L32 12L32 13L30 13L30 12L31 12L31 11L34 11L34 10L35 10L35 9L33 9L33 10L32 10L32 9L31 9L31 11L30 11L30 10L29 10L29 9L30 9L30 8L31 8L31 7L32 7L32 6L31 6L31 7L30 7L30 5L29 5L29 3L27 3L27 2ZM54 2L54 3L56 3L56 4L55 4L55 5L54 5L54 4L53 4L53 7L54 7L54 6L55 6L55 7L56 7L56 6L55 6L55 5L57 5L57 7L58 7L58 5L57 5L57 3L56 3L56 2ZM33 3L33 4L35 4L35 3ZM36 3L36 4L37 4L37 5L39 5L39 8L38 8L38 6L37 6L37 8L38 8L38 9L39 9L39 10L40 10L40 9L41 9L41 8L43 8L43 9L44 9L44 6L43 6L43 5L41 5L41 4L40 4L40 5L39 5L39 4L38 4L38 3ZM60 3L60 5L61 5L61 3ZM33 5L33 8L36 8L36 5ZM40 5L40 7L41 7L41 5ZM16 6L16 8L15 8L15 9L14 9L14 10L13 10L13 9L12 9L12 10L13 10L13 13L12 13L12 15L11 15L11 16L14 16L14 17L15 17L15 18L13 18L13 21L15 21L15 22L16 22L16 21L15 21L15 20L18 20L18 21L17 21L17 22L18 22L18 21L20 21L20 22L21 22L21 23L22 23L22 24L23 24L23 23L24 23L24 22L25 22L25 23L26 23L26 22L25 22L25 21L29 21L29 22L27 22L27 24L26 24L26 25L25 25L25 24L24 24L24 25L25 25L25 26L26 26L26 25L27 25L27 26L28 26L28 28L26 28L26 30L27 30L27 29L29 29L29 30L28 30L28 32L26 32L26 31L25 31L25 33L24 33L24 34L23 34L23 33L22 33L22 32L19 32L19 33L18 33L18 34L17 34L17 35L18 35L18 34L19 34L19 33L22 33L22 34L23 34L23 37L22 37L22 35L21 35L21 34L20 34L20 35L19 35L19 36L18 36L18 37L17 37L17 38L15 38L15 39L16 39L16 40L17 40L17 41L19 41L19 39L20 39L20 38L23 38L23 39L24 39L24 38L25 38L25 37L29 37L29 38L27 38L27 40L26 40L26 39L25 39L25 40L22 40L22 39L21 39L21 41L20 41L20 42L19 42L19 43L18 43L18 42L17 42L17 44L16 44L16 45L17 45L17 46L15 46L15 44L14 44L14 45L13 45L13 49L12 49L12 47L11 47L11 48L9 48L9 47L7 47L7 46L6 46L6 47L7 47L7 48L6 48L6 49L8 49L8 48L9 48L9 49L11 49L11 50L5 50L5 51L12 51L12 52L13 52L13 55L14 55L14 56L15 56L15 55L16 55L16 54L15 54L15 53L17 53L17 55L19 55L19 54L18 54L18 53L20 53L20 54L21 54L21 55L22 55L22 56L23 56L23 55L24 55L24 54L25 54L25 55L26 55L26 53L29 53L29 52L26 52L26 53L24 53L24 51L25 51L25 50L26 50L26 51L28 51L28 50L29 50L29 51L30 51L30 53L32 53L32 54L33 54L33 55L34 55L34 54L33 54L33 53L35 53L35 52L36 52L36 51L35 51L35 52L34 52L34 51L33 51L33 50L35 50L35 49L32 49L32 52L31 52L31 51L30 51L30 50L29 50L29 49L24 49L24 48L25 48L25 47L24 47L24 46L23 46L23 45L19 45L19 43L20 43L20 42L21 42L21 44L24 44L24 43L22 43L22 42L21 42L21 41L24 41L24 42L26 42L26 41L27 41L27 42L28 42L28 41L29 41L29 39L30 39L30 37L31 37L31 36L32 36L32 38L33 38L33 39L31 39L31 40L32 40L32 41L34 41L34 42L32 42L32 43L33 43L33 44L35 44L35 43L37 43L37 41L38 41L38 43L39 43L39 42L40 42L40 39L42 39L42 40L41 40L41 43L40 43L40 44L42 44L42 43L44 43L44 44L43 44L43 45L41 45L41 46L40 46L40 45L38 45L38 47L37 47L37 48L38 48L38 47L41 47L41 48L42 48L42 47L43 47L43 46L44 46L44 45L45 45L45 46L46 46L46 45L47 45L47 43L44 43L44 42L46 42L46 41L48 41L48 42L49 42L49 43L48 43L48 46L47 46L47 47L48 47L48 46L49 46L49 47L50 47L50 46L53 46L53 47L56 47L56 48L54 48L54 51L55 51L55 50L56 50L56 49L57 49L57 51L56 51L56 53L57 53L57 52L58 52L58 53L59 53L59 51L60 51L60 50L62 50L62 48L63 48L63 47L62 47L62 48L60 48L60 49L59 49L59 51L58 51L58 47L57 47L57 44L59 44L59 43L60 43L60 42L61 42L61 41L63 41L63 40L64 40L64 41L65 41L65 38L64 38L64 39L62 39L62 40L61 40L61 38L63 38L63 37L65 37L65 35L66 35L66 34L65 34L65 32L64 32L64 31L63 31L63 29L62 29L62 28L61 28L61 27L60 27L60 26L61 26L61 25L60 25L60 26L59 26L59 27L60 27L60 28L61 28L61 29L60 29L60 30L59 30L59 31L60 31L60 30L61 30L61 32L59 32L59 36L58 36L58 33L57 33L57 31L55 31L55 30L57 30L57 27L56 27L56 26L57 26L57 24L58 24L58 25L59 25L59 23L56 23L56 22L57 22L57 20L58 20L58 21L59 21L59 22L61 22L61 21L59 21L59 20L60 20L60 19L61 19L61 20L62 20L62 19L61 19L61 17L60 17L60 14L59 14L59 15L58 15L58 14L57 14L57 15L55 15L55 16L54 16L54 22L53 22L53 21L52 21L52 22L51 22L51 20L49 20L49 19L48 19L48 18L50 18L50 19L51 19L51 16L52 16L52 14L51 14L51 13L50 13L50 12L49 12L49 11L46 11L46 10L45 10L45 11L46 11L46 12L48 12L48 15L49 15L49 16L47 16L47 15L46 15L46 13L45 13L45 15L43 15L43 14L44 14L44 13L43 13L43 12L42 12L42 15L41 15L41 14L40 14L40 13L39 13L39 12L38 12L38 11L37 11L37 12L36 12L36 13L38 13L38 15L41 15L41 17L40 17L40 18L39 18L39 16L37 16L37 19L36 19L36 18L35 18L35 17L36 17L36 16L35 16L35 17L33 17L33 16L31 16L31 15L30 15L30 14L28 14L28 15L27 15L27 14L25 14L25 13L29 13L29 12L25 12L25 13L24 13L24 11L23 11L23 10L21 10L21 9L24 9L24 10L26 10L26 9L27 9L27 11L28 11L28 9L29 9L29 6L28 6L28 7L27 7L27 6L26 6L26 7L25 7L25 8L24 8L24 7L23 7L23 8L22 8L22 7L21 7L21 9L20 9L20 10L19 10L19 11L18 11L18 10L17 10L17 9L16 9L16 8L17 8L17 6ZM34 6L34 7L35 7L35 6ZM42 6L42 7L43 7L43 6ZM45 6L45 8L47 8L47 7L46 7L46 6ZM50 6L50 7L51 7L51 6ZM60 6L60 7L61 7L61 6ZM26 7L26 8L25 8L25 9L26 9L26 8L27 8L27 9L28 9L28 8L27 8L27 7ZM0 8L0 9L1 9L1 10L0 10L0 11L1 11L1 10L4 10L4 9L5 9L5 10L6 10L6 11L8 11L8 10L6 10L6 9L7 9L7 8L4 8L4 9L2 9L2 8ZM15 9L15 10L16 10L16 9ZM20 10L20 13L18 13L18 12L16 12L16 11L15 11L15 12L14 12L14 15L15 15L15 16L17 16L17 17L16 17L16 18L17 18L17 19L19 19L19 20L20 20L20 21L21 21L21 22L22 22L22 21L25 21L25 20L26 20L26 19L27 19L27 20L29 20L29 21L30 21L30 22L29 22L29 23L30 23L30 22L31 22L31 23L32 23L32 24L30 24L30 25L28 25L28 24L27 24L27 25L28 25L28 26L30 26L30 27L31 27L31 29L30 29L30 28L29 28L29 29L30 29L30 30L29 30L29 31L30 31L30 32L28 32L28 33L27 33L27 34L26 34L26 33L25 33L25 34L26 34L26 35L25 35L25 36L24 36L24 37L23 37L23 38L24 38L24 37L25 37L25 36L27 36L27 35L28 35L28 34L30 34L30 35L29 35L29 37L30 37L30 35L32 35L32 33L30 33L30 32L33 32L33 31L34 31L34 30L36 30L36 31L37 31L37 32L38 32L38 33L39 33L39 34L40 34L40 38L39 38L39 36L38 36L38 37L37 37L37 39L36 39L36 37L34 37L34 38L35 38L35 39L34 39L34 41L35 41L35 42L36 42L36 41L37 41L37 39L38 39L38 40L39 40L39 39L40 39L40 38L41 38L41 37L42 37L42 35L41 35L41 34L42 34L42 31L41 31L41 30L42 30L42 29L41 29L41 30L40 30L40 29L39 29L39 31L37 31L37 30L38 30L38 28L39 28L39 27L40 27L40 26L41 26L41 27L43 27L43 28L44 28L44 27L45 27L45 28L46 28L46 30L45 30L45 34L44 34L44 35L45 35L45 34L46 34L46 35L47 35L47 34L48 34L48 35L49 35L49 36L50 36L50 37L49 37L49 38L48 38L48 37L47 37L47 36L45 36L45 38L44 38L44 37L43 37L43 40L42 40L42 41L44 41L44 39L46 39L46 40L45 40L45 41L46 41L46 40L48 40L48 39L49 39L49 40L51 40L51 41L52 41L52 42L53 42L53 41L54 41L54 40L55 40L55 41L56 41L56 39L57 39L57 40L58 40L58 41L57 41L57 42L56 42L56 43L57 43L57 42L58 42L58 43L59 43L59 42L60 42L60 41L61 41L61 40L60 40L60 39L59 39L59 37L60 37L60 36L59 36L59 37L58 37L58 36L57 36L57 38L56 38L56 39L55 39L55 38L54 38L54 39L50 39L50 37L52 37L52 38L53 38L53 37L56 37L56 35L54 35L54 33L53 33L53 31L52 31L52 34L50 34L50 33L51 33L51 31L49 31L49 29L50 29L50 28L51 28L51 30L52 30L52 29L55 29L55 26L56 26L56 25L55 25L55 24L56 24L56 23L54 23L54 24L53 24L53 23L51 23L51 24L50 24L50 25L51 25L51 26L52 26L52 27L49 27L49 26L47 26L47 25L46 25L46 24L45 24L45 26L44 26L44 24L43 24L43 23L41 23L41 22L40 22L40 21L41 21L41 19L40 19L40 21L39 21L39 22L38 22L38 23L37 23L37 21L38 21L38 20L39 20L39 19L37 19L37 20L35 20L35 21L34 21L34 20L33 20L33 19L31 19L31 20L33 20L33 23L32 23L32 22L31 22L31 21L30 21L30 20L29 20L29 18L31 18L31 17L30 17L30 16L26 16L26 15L25 15L25 14L23 14L23 15L22 15L22 17L21 17L21 18L20 18L20 19L19 19L19 18L17 18L17 17L18 17L18 16L19 16L19 17L20 17L20 15L21 15L21 14L22 14L22 13L23 13L23 12L22 12L22 11L21 11L21 10ZM63 10L63 11L64 11L64 13L63 13L63 14L64 14L64 13L65 13L65 14L66 14L66 13L67 13L67 11L66 11L66 10ZM51 11L51 12L52 12L52 11ZM15 12L15 13L16 13L16 12ZM21 12L21 13L20 13L20 14L21 14L21 13L22 13L22 12ZM65 12L65 13L66 13L66 12ZM3 13L3 14L4 14L4 13ZM17 13L17 15L18 15L18 13ZM15 14L15 15L16 15L16 14ZM2 15L2 16L1 16L1 19L2 19L2 16L3 16L3 17L6 17L6 16L5 16L5 15ZM23 15L23 16L24 16L24 15ZM42 15L42 16L43 16L43 15ZM45 16L45 17L44 17L44 18L43 18L43 19L42 19L42 20L43 20L43 19L45 19L45 18L46 18L46 19L47 19L47 18L48 18L48 17L46 17L46 16ZM22 17L22 18L21 18L21 19L22 19L22 20L21 20L21 21L22 21L22 20L24 20L24 19L23 19L23 17ZM24 17L24 18L25 18L25 19L26 19L26 18L27 18L27 19L28 19L28 18L29 18L29 17ZM41 17L41 18L42 18L42 17ZM55 17L55 19L57 19L57 18L56 18L56 17ZM58 17L58 19L59 19L59 18L60 18L60 17ZM66 17L66 18L67 18L67 17ZM9 19L9 21L10 21L10 19ZM64 19L64 22L66 22L66 21L67 21L67 19ZM45 20L45 22L44 22L44 21L43 21L43 22L44 22L44 23L47 23L47 24L48 24L48 22L50 22L50 21L48 21L48 20L47 20L47 21L46 21L46 20ZM55 20L55 22L56 22L56 20ZM65 20L65 21L66 21L66 20ZM47 21L47 22L48 22L48 21ZM0 22L0 23L1 23L1 22ZM13 22L13 23L14 23L14 22ZM34 22L34 23L33 23L33 25L32 25L32 26L31 26L31 25L30 25L30 26L31 26L31 27L32 27L32 26L33 26L33 25L36 25L36 27L34 27L34 28L32 28L32 29L31 29L31 30L30 30L30 31L33 31L33 29L34 29L34 28L35 28L35 29L36 29L36 28L37 28L37 27L39 27L39 26L40 26L40 25L38 25L38 24L35 24L35 23L36 23L36 22ZM16 23L16 24L17 24L17 23ZM39 23L39 24L40 24L40 23ZM0 24L0 25L1 25L1 24ZM6 24L6 25L7 25L7 24ZM12 24L12 25L13 25L13 24ZM42 24L42 25L41 25L41 26L43 26L43 24ZM20 25L20 26L22 26L22 25ZM37 25L37 26L38 26L38 25ZM52 25L52 26L53 26L53 28L54 28L54 26L55 26L55 25ZM5 26L5 27L7 27L7 28L6 28L6 29L5 29L5 30L6 30L6 31L7 31L7 30L6 30L6 29L7 29L7 28L8 28L8 27L7 27L7 26ZM21 27L21 28L22 28L22 27ZM46 27L46 28L47 28L47 29L49 29L49 28L47 28L47 27ZM58 28L58 29L59 29L59 28ZM11 29L11 31L12 31L12 32L11 32L11 33L13 33L13 31L14 31L14 30L12 30L12 29ZM2 30L2 31L3 31L3 30ZM47 30L47 31L48 31L48 34L49 34L49 35L50 35L50 34L49 34L49 33L50 33L50 32L49 32L49 31L48 31L48 30ZM39 31L39 32L40 32L40 31ZM43 31L43 32L44 32L44 31ZM54 31L54 32L55 32L55 31ZM62 31L62 32L63 32L63 31ZM3 32L3 33L4 33L4 32ZM5 33L5 36L8 36L8 33ZM33 33L33 36L36 36L36 33ZM40 33L40 34L41 34L41 33ZM55 33L55 34L56 34L56 33ZM61 33L61 36L64 36L64 33ZM6 34L6 35L7 35L7 34ZM10 34L10 36L12 36L12 35L11 35L11 34ZM34 34L34 35L35 35L35 34ZM52 34L52 35L51 35L51 36L52 36L52 35L53 35L53 36L54 36L54 35L53 35L53 34ZM62 34L62 35L63 35L63 34ZM0 35L0 36L1 36L1 37L0 37L0 38L1 38L1 37L2 37L2 36L1 36L1 35ZM20 36L20 37L18 37L18 39L19 39L19 38L20 38L20 37L21 37L21 36ZM10 37L10 38L11 38L11 37ZM6 39L6 40L7 40L7 39ZM35 39L35 40L36 40L36 39ZM58 39L58 40L59 40L59 39ZM4 40L4 41L5 41L5 40ZM25 40L25 41L26 41L26 40ZM49 43L49 46L50 46L50 45L53 45L53 43L52 43L52 44L51 44L51 43ZM17 44L17 45L18 45L18 47L15 47L15 48L14 48L14 49L15 49L15 50L14 50L14 51L15 51L15 50L16 50L16 51L19 51L19 52L20 52L20 53L21 53L21 54L22 54L22 53L23 53L23 54L24 54L24 53L23 53L23 52L22 52L22 53L21 53L21 51L22 51L22 50L24 50L24 49L23 49L23 48L24 48L24 47L23 47L23 48L22 48L22 50L20 50L20 51L19 51L19 50L17 50L17 49L18 49L18 48L19 48L19 49L20 49L20 48L21 48L21 47L22 47L22 46L21 46L21 47L20 47L20 46L19 46L19 45L18 45L18 44ZM60 44L60 45L61 45L61 44ZM8 45L8 46L9 46L9 45ZM41 46L41 47L42 47L42 46ZM59 46L59 47L60 47L60 46ZM15 48L15 49L17 49L17 48ZM68 48L68 49L69 49L69 48ZM47 50L47 51L48 51L48 50ZM6 52L6 53L5 53L5 54L6 54L6 55L5 55L5 57L7 57L7 58L9 58L9 59L10 59L10 58L9 58L9 57L7 57L7 56L6 56L6 55L7 55L7 54L6 54L6 53L7 53L7 52ZM14 52L14 53L15 53L15 52ZM17 52L17 53L18 53L18 52ZM1 53L1 54L3 54L3 53ZM8 53L8 54L9 54L9 55L8 55L8 56L9 56L9 55L10 55L10 56L11 56L11 54L12 54L12 53L11 53L11 54L9 54L9 53ZM50 53L50 55L51 55L51 53ZM14 54L14 55L15 55L15 54ZM57 54L57 55L55 55L55 56L56 56L56 57L58 57L58 56L57 56L57 55L58 55L58 54ZM1 55L1 56L2 56L2 55ZM24 56L24 57L25 57L25 56ZM11 57L11 58L12 58L12 57ZM48 57L48 58L49 58L49 57ZM59 57L59 58L60 58L60 57ZM0 58L0 61L1 61L1 58ZM39 58L39 59L41 59L41 60L42 60L42 58ZM43 58L43 60L44 60L44 59L45 59L45 58ZM27 59L27 60L28 60L28 59ZM52 59L52 62L53 62L53 59ZM54 59L54 61L55 61L55 60L56 60L56 59ZM67 59L67 61L69 61L69 60L68 60L68 59ZM3 60L3 61L5 61L5 60ZM18 60L18 61L19 61L19 62L18 62L18 63L16 63L16 62L13 62L13 63L14 63L14 64L16 64L16 65L18 65L18 66L16 66L16 67L15 67L15 66L14 66L14 65L13 65L13 64L12 64L12 63L10 63L10 64L9 64L9 63L8 63L8 65L9 65L9 66L10 66L10 67L8 67L8 69L9 69L9 68L10 68L10 69L12 69L12 67L13 67L13 66L14 66L14 67L15 67L15 69L17 69L17 68L18 68L18 69L20 69L20 68L21 68L21 69L22 69L22 68L23 68L23 67L22 67L22 66L23 66L23 65L22 65L22 64L19 64L19 62L20 62L20 63L21 63L21 61L22 61L22 62L23 62L23 61L22 61L22 60L21 60L21 61L19 61L19 60ZM24 61L24 62L25 62L25 61ZM33 61L33 64L36 64L36 61ZM39 61L39 63L40 63L40 64L39 64L39 68L40 68L40 66L41 66L41 65L44 65L44 63L45 63L45 64L46 64L46 63L45 63L45 62L44 62L44 61L43 61L43 62L42 62L42 61L41 61L41 62L40 62L40 61ZM48 61L48 62L49 62L49 64L50 64L50 65L49 65L49 66L48 66L48 67L47 67L47 68L48 68L48 67L50 67L50 65L51 65L51 63L50 63L50 62L49 62L49 61ZM61 61L61 64L64 64L64 61ZM34 62L34 63L35 63L35 62ZM41 62L41 63L42 63L42 64L43 64L43 63L44 63L44 62L43 62L43 63L42 63L42 62ZM62 62L62 63L63 63L63 62ZM10 64L10 66L13 66L13 65L11 65L11 64ZM18 64L18 65L19 65L19 66L18 66L18 68L19 68L19 67L20 67L20 66L22 66L22 65L19 65L19 64ZM28 64L28 65L27 65L27 66L26 66L26 65L25 65L25 66L26 66L26 67L28 67L28 66L29 66L29 67L30 67L30 66L31 66L31 67L35 67L35 65L33 65L33 66L32 66L32 65L29 65L29 64ZM37 64L37 65L38 65L38 64ZM63 65L63 67L64 67L64 65ZM55 66L55 67L54 67L54 68L56 68L56 67L57 67L57 66ZM65 66L65 67L66 67L66 66ZM10 67L10 68L11 68L11 67ZM21 67L21 68L22 68L22 67ZM59 67L59 68L60 68L60 69L61 69L61 67ZM68 68L68 69L69 69L69 68ZM0 0L0 7L7 7L7 0ZM1 1L1 6L6 6L6 1ZM2 2L2 5L5 5L5 2ZM62 0L62 7L69 7L69 0ZM63 1L63 6L68 6L68 1ZM64 2L64 5L67 5L67 2ZM0 62L0 69L7 69L7 62ZM1 63L1 68L6 68L6 63ZM2 64L2 67L5 67L5 64Z" fill="#000000"/></g></g></svg>
