<?xml version="1.0" encoding="UTF-8"?>
<svg xmlns="http://www.w3.org/2000/svg" version="1.1" width="200" height="200" viewBox="0 0 200 200"><rect x="0" y="0" width="200" height="200" fill="#ffffff"/><g transform="scale(6.061)"><g transform="translate(0,0)"><path fill-rule="evenodd" d="M8 0L8 1L9 1L9 2L10 2L10 3L11 3L11 1L13 1L13 2L12 2L12 4L11 4L11 5L10 5L10 4L9 4L9 5L10 5L10 8L9 8L9 6L8 6L8 8L9 8L9 9L7 9L7 8L6 8L6 9L5 9L5 8L3 8L3 9L2 9L2 8L0 8L0 9L1 9L1 10L0 10L0 12L1 12L1 15L0 15L0 18L2 18L2 19L1 19L1 20L0 20L0 25L3 25L3 24L4 24L4 23L3 23L3 24L1 24L1 21L2 21L2 22L5 22L5 23L8 23L8 24L5 24L5 25L8 25L8 26L9 26L9 27L11 27L11 26L9 26L9 25L8 25L8 24L9 24L9 21L10 21L10 23L11 23L11 19L12 19L12 21L13 21L13 20L14 20L14 22L15 22L15 23L14 23L14 25L13 25L13 24L12 24L12 26L15 26L15 27L14 27L14 28L13 28L13 30L14 30L14 31L12 31L12 30L11 30L11 29L10 29L10 32L9 32L9 31L8 31L8 33L11 33L11 31L12 31L12 32L15 32L15 33L16 33L16 32L15 32L15 31L18 31L18 32L17 32L17 33L20 33L20 32L21 32L21 29L20 29L20 30L18 30L18 29L19 29L19 27L20 27L20 26L19 26L19 24L20 24L20 25L21 25L21 26L22 26L22 25L21 25L21 23L22 23L22 24L23 24L23 25L24 25L24 26L23 26L23 27L24 27L24 28L22 28L22 29L24 29L24 31L23 31L23 30L22 30L22 31L23 31L23 32L22 32L22 33L23 33L23 32L24 32L24 33L30 33L30 32L33 32L33 30L32 30L32 31L31 31L31 29L33 29L33 27L30 27L30 28L31 28L31 29L29 29L29 25L30 25L30 26L31 26L31 25L32 25L32 24L33 24L33 22L32 22L32 23L30 23L30 22L29 22L29 21L30 21L30 20L31 20L31 21L32 21L32 19L33 19L33 18L32 18L32 19L30 19L30 18L31 18L31 17L33 17L33 15L32 15L32 16L31 16L31 14L32 14L32 13L33 13L33 12L32 12L32 11L33 11L33 10L32 10L32 9L33 9L33 8L32 8L32 9L27 9L27 8L26 8L26 9L23 9L23 8L22 8L22 10L23 10L23 11L22 11L22 12L21 12L21 9L20 9L20 8L21 8L21 6L20 6L20 8L19 8L19 5L21 5L21 4L23 4L23 3L25 3L25 0L24 0L24 2L22 2L22 1L23 1L23 0L20 0L20 1L19 1L19 0L17 0L17 2L18 2L18 3L19 3L19 5L18 5L18 4L17 4L17 3L15 3L15 4L14 4L14 0L11 0L11 1L9 1L9 0ZM19 2L19 3L20 3L20 4L21 4L21 2ZM12 4L12 5L11 5L11 7L12 7L12 9L10 9L10 10L9 10L9 11L6 11L6 12L7 12L7 13L4 13L4 14L3 14L3 15L1 15L1 16L2 16L2 18L3 18L3 21L4 21L4 18L5 18L5 21L6 21L6 22L7 22L7 21L8 21L8 20L10 20L10 19L11 19L11 18L8 18L8 20L7 20L7 19L6 19L6 18L7 18L7 17L13 17L13 18L12 18L12 19L13 19L13 18L14 18L14 19L15 19L15 18L17 18L17 19L16 19L16 20L18 20L18 18L19 18L19 17L20 17L20 15L19 15L19 17L18 17L18 12L17 12L17 11L15 11L15 10L14 10L14 8L18 8L18 5L16 5L16 4L15 4L15 5L13 5L13 4ZM24 4L24 5L23 5L23 6L22 6L22 7L23 7L23 6L24 6L24 7L25 7L25 6L24 6L24 5L25 5L25 4ZM12 5L12 7L13 7L13 8L14 8L14 7L15 7L15 6L14 6L14 7L13 7L13 5ZM16 6L16 7L17 7L17 6ZM3 9L3 11L2 11L2 10L1 10L1 11L2 11L2 13L3 13L3 11L4 11L4 12L5 12L5 9ZM6 9L6 10L7 10L7 9ZM12 9L12 10L10 10L10 11L9 11L9 13L10 13L10 12L11 12L11 13L13 13L13 14L9 14L9 15L11 15L11 16L12 16L12 15L14 15L14 14L15 14L15 15L16 15L16 16L15 16L15 17L17 17L17 18L18 18L18 17L17 17L17 15L16 15L16 14L17 14L17 13L16 13L16 12L15 12L15 13L13 13L13 11L12 11L12 10L13 10L13 9ZM16 9L16 10L18 10L18 11L19 11L19 14L21 14L21 18L22 18L22 15L24 15L24 17L23 17L23 18L24 18L24 19L23 19L23 20L22 20L22 19L20 19L20 20L21 20L21 21L20 21L20 22L19 22L19 21L17 21L17 22L16 22L16 23L15 23L15 25L16 25L16 26L17 26L17 28L16 28L16 29L18 29L18 27L19 27L19 26L17 26L17 25L18 25L18 24L17 24L17 22L19 22L19 23L21 23L21 21L25 21L25 20L24 20L24 19L25 19L25 18L24 18L24 17L26 17L26 16L27 16L27 19L26 19L26 22L25 22L25 24L27 24L27 23L26 23L26 22L28 22L28 24L29 24L29 22L28 22L28 21L29 21L29 20L30 20L30 19L29 19L29 18L28 18L28 15L26 15L26 14L30 14L30 13L31 13L31 12L30 12L30 11L29 11L29 12L28 12L28 11L27 11L27 10L26 10L26 11L25 11L25 12L24 12L24 11L23 11L23 12L22 12L22 13L20 13L20 10L18 10L18 9ZM25 12L25 13L22 13L22 14L24 14L24 15L25 15L25 16L26 16L26 15L25 15L25 14L26 14L26 13L27 13L27 12ZM29 12L29 13L30 13L30 12ZM7 13L7 14L6 14L6 15L5 15L5 16L6 16L6 17L7 17L7 16L6 16L6 15L8 15L8 13ZM3 15L3 16L4 16L4 15ZM29 15L29 16L30 16L30 17L31 17L31 16L30 16L30 15ZM13 16L13 17L14 17L14 16ZM3 17L3 18L4 18L4 17ZM27 19L27 21L28 21L28 20L29 20L29 19ZM6 20L6 21L7 21L7 20ZM12 22L12 23L13 23L13 22ZM10 24L10 25L11 25L11 24ZM16 24L16 25L17 25L17 24ZM30 24L30 25L31 25L31 24ZM25 25L25 28L28 28L28 25ZM26 26L26 27L27 27L27 26ZM8 28L8 30L9 30L9 28ZM25 29L25 31L24 31L24 32L25 32L25 31L28 31L28 30L27 30L27 29ZM29 30L29 32L30 32L30 30ZM0 0L0 7L7 7L7 0ZM1 1L1 6L6 6L6 1ZM2 2L2 5L5 5L5 2ZM26 0L26 7L33 7L33 0ZM27 1L27 6L32 6L32 1ZM28 2L28 5L31 5L31 2ZM0 26L0 33L7 33L7 26ZM1 27L1 32L6 32L6 27ZM2 28L2 31L5 31L5 28Z" fill="#000000"/></g></g></svg>
